REM DIRINDEX 1\2,1\3,1\4,1\5
REM DIRNAME folder01,folder02,folder03,folder04,folder05
TITLE ""
FILE "Round-01-010-011.mp3" MP3
  TRACK 01 AUDIO
    TITLE "0:"
    INDEX 01 00:00:00
  TRACK 02 AUDIO
    TITLE "2:cjc093_0103"
    INDEX 01 00:00:05
  TRACK 03 AUDIO
    TITLE "0:"
    INDEX 01 00:01:05
  TRACK 04 AUDIO
    TITLE "3:cjc093_0104"
    INDEX 01 00:01:44
  TRACK 05 AUDIO
    TITLE "0:"
    INDEX 01 00:03:31
  TRACK 06 AUDIO
    TITLE "4:cjc093_0105"
    INDEX 01 00:03:45
  TRACK 07 AUDIO
    TITLE "0:"
    INDEX 01 00:06:57
  TRACK 08 AUDIO
    TITLE "3:cjc093_0106"
    INDEX 01 00:07:68
  TRACK 09 AUDIO
    TITLE "0:"
    INDEX 01 00:09:24
  TRACK 10 AUDIO
    TITLE "4:cjc093_0107"
    INDEX 01 00:09:51
  TRACK 11 AUDIO
    TITLE "0:"
    INDEX 01 00:12:03
  TRACK 12 AUDIO
    TITLE "3:cjc093_0108"
    INDEX 01 00:13:16
  TRACK 13 AUDIO
    TITLE "0:"
    INDEX 01 00:14:51
  TRACK 14 AUDIO
    TITLE "4:cjc093_0109"
    INDEX 01 00:15:01
  TRACK 15 AUDIO
    TITLE "0:"
    INDEX 01 00:17:53
  TRACK 16 AUDIO
    TITLE "2:cjc093_0110"
    INDEX 01 00:18:66
  TRACK 17 AUDIO
    TITLE "0:"
    INDEX 01 00:19:63
  TRACK 18 AUDIO
    TITLE "3:cjc093_0111"
    INDEX 01 00:20:26
  TRACK 19 AUDIO
    TITLE "0:"
    INDEX 01 00:22:11
  TRACK 20 AUDIO
    TITLE "4:cjc093_0112"
    INDEX 01 00:22:34
  TRACK 21 AUDIO
    TITLE "0:"
    INDEX 01 00:25:07
  TRACK 22 AUDIO
    TITLE "3:cjc093_0113"
    INDEX 01 00:26:18
  TRACK 23 AUDIO
    TITLE "0:"
    INDEX 01 00:27:69
  TRACK 24 AUDIO
    TITLE "4:cjc093_0114"
    INDEX 01 00:28:08
  TRACK 25 AUDIO
    TITLE "0:"
    INDEX 01 00:32:01
  TRACK 26 AUDIO
    TITLE "2:cjc093_0115"
    INDEX 01 00:33:13
  TRACK 27 AUDIO
    TITLE "0:"
    INDEX 01 00:34:18
  TRACK 28 AUDIO
    TITLE "3:cjc093_0116"
    INDEX 01 00:34:57
  TRACK 29 AUDIO
    TITLE "0:"
    INDEX 01 00:36:29
  TRACK 30 AUDIO
    TITLE "4:cjc093_0117"
    INDEX 01 00:36:46
  TRACK 31 AUDIO
    TITLE "0:"
    INDEX 01 00:39:05
  TRACK 32 AUDIO
    TITLE "4:cjc093_0118"
    INDEX 01 00:40:15
  TRACK 33 AUDIO
    TITLE "0:"
    INDEX 01 00:43:29
  TRACK 34 AUDIO
    TITLE "2:cjc093_0119"
    INDEX 01 00:44:40
  TRACK 35 AUDIO
    TITLE "0:"
    INDEX 01 00:45:49
  TRACK 36 AUDIO
    TITLE "3:cjc093_0120"
    INDEX 01 00:46:23
  TRACK 37 AUDIO
    TITLE "0:"
    INDEX 01 00:47:72
  TRACK 38 AUDIO
    TITLE "4:cjc093_0121"
    INDEX 01 00:48:00
  TRACK 39 AUDIO
    TITLE "0:"
    INDEX 01 00:50:52
  TRACK 40 AUDIO
    TITLE "3:cjc093_0122"
    INDEX 01 00:51:63
  TRACK 41 AUDIO
    TITLE "0:"
    INDEX 01 00:53:00
  TRACK 42 AUDIO
    TITLE "4:cjc093_0123"
    INDEX 01 00:53:33
  TRACK 43 AUDIO
    TITLE "0:"
    INDEX 01 00:55:63
  TRACK 44 AUDIO
    TITLE "2:cjc093_0124"
    INDEX 01 00:57:03
  TRACK 45 AUDIO
    TITLE "0:"
    INDEX 01 00:58:09
  TRACK 46 AUDIO
    TITLE "3:cjc093_0125"
    INDEX 01 00:58:46
  TRACK 47 AUDIO
    TITLE "0:"
    INDEX 01 01:00:08
  TRACK 48 AUDIO
    TITLE "4:cjc093_0126"
    INDEX 01 01:00:31
  TRACK 49 AUDIO
    TITLE "0:"
    INDEX 01 01:03:24
  TRACK 50 AUDIO
    TITLE "4:cjc093_0127"
    INDEX 01 01:04:37
  TRACK 51 AUDIO
    TITLE "0:"
    INDEX 01 01:06:61
  TRACK 52 AUDIO
    TITLE "2:cjc093_0128"
    INDEX 01 01:07:74
  TRACK 53 AUDIO
    TITLE "0:"
    INDEX 01 01:09:03
  TRACK 54 AUDIO
    TITLE "3:cjc093_0129"
    INDEX 01 01:09:36
  TRACK 55 AUDIO
    TITLE "0:"
    INDEX 01 01:11:11
  TRACK 56 AUDIO
    TITLE "4:cjc093_0130"
    INDEX 01 01:11:37
  TRACK 57 AUDIO
    TITLE "0:"
    INDEX 01 01:14:00
  TRACK 58 AUDIO
    TITLE "3:cjc093_0131"
    INDEX 01 01:15:13
  TRACK 59 AUDIO
    TITLE "0:"
    INDEX 01 01:16:42
  TRACK 60 AUDIO
    TITLE "4:cjc093_0132"
    INDEX 01 01:17:04
  TRACK 61 AUDIO
    TITLE "0:"
    INDEX 01 01:19:60
  TRACK 62 AUDIO
    TITLE "3:cjc093_0133"
    INDEX 01 01:20:73
  TRACK 63 AUDIO
    TITLE "0:"
    INDEX 01 01:22:39
  TRACK 64 AUDIO
    TITLE "4:cjc093_0134"
    INDEX 01 01:22:64
  TRACK 65 AUDIO
    TITLE "0:"
    INDEX 01 01:24:59
